<svg xmlns="http://www.w3.org/2000/svg" version="1.1" xmlns:xlink="http://www.w3.org/1999/xlink" viewBox="0 0 200 200" width="200" height="200"><rect width="200" height="200" fill="url('#gradient')"></rect><defs><linearGradient id="gradient" gradientTransform="rotate(147 0.5 0.5)"><stop offset="0%" stop-color="#000000"></stop><stop offset="100%" stop-color="#192025"></stop></linearGradient></defs><g><g fill="#ffffff" transform="matrix(4.650480349344978,0,0,4.650480349344978,17.010499679511298,132.60158509375225)" stroke="#1cff00" stroke-width="0.2"><path d="M4.50-14.22L4.50-2.64L10.47-2.64L10.47 0L1.07 0L1.07-14.22L4.50-14.22ZM17.58-4.46L17.58-14.22L21.00-14.22L21.00-4.46Q21.00-3.11 20.37-2.04Q19.74-0.98 18.61-0.39Q17.48 0.20 16.09 0.20L16.09 0.20Q13.77 0.20 12.48-0.98Q11.19-2.15 11.19-4.30L11.19-4.30L14.63-4.30Q14.63-3.32 14.97-2.88Q15.30-2.44 16.09-2.44L16.09-2.44Q16.81-2.44 17.19-2.97Q17.58-3.51 17.58-4.46L17.58-4.46ZM30.95 0L28.44-5.02L26.58-5.02L26.58 0L23.15 0L23.15-14.22L28.75-14.22Q31.28-14.22 32.71-13.10Q34.13-11.97 34.13-9.92L34.13-9.92Q34.13-8.44 33.53-7.46Q32.93-6.48 31.65-5.88L31.65-5.88L34.62-0.15L34.62 0L30.95 0ZM26.58-11.57L26.58-7.67L28.75-7.67Q29.73-7.67 30.22-8.18Q30.71-8.69 30.71-9.61Q30.71-10.53 30.21-11.05Q29.72-11.57 28.75-11.57L28.75-11.57L26.58-11.57Z"></path></g></g><style>@media (prefers-color-scheme: light) { :root { filter: none; } }
@media (prefers-color-scheme: dark) { :root { filter: invert(100%); } }
</style></svg>